<svg id="Component_14_50" data-name="Component 14 – 50" xmlns="http://www.w3.org/2000/svg" width="46" height="47" viewBox="0 0 46 47">
  <g id="Ellipse_8" data-name="Ellipse 8" fill="none" stroke="#d9d9d9" stroke-width="1">
    <ellipse cx="23" cy="23.5" rx="23" ry="23.5" stroke="none"/>
    <ellipse cx="23" cy="23.5" rx="22.5" ry="23" fill="none"/>
  </g>
  <path id="facebook-svgrepo-com_4_" data-name="facebook-svgrepo-com(4)" d="M-330.005,278.037c0-.947.846-1.287,1.792-1.287a8.154,8.154,0,0,1,1.958.294l.607-3.6a15.112,15.112,0,0,0-4.357-.441,4.328,4.328,0,0,0-3.778,1.774,6.369,6.369,0,0,0-.781,3.649v2.362H-337v3.52h2.436V296.53h4.559V284.306h3.612l.267-3.52h-3.879Z" transform="translate(354.063 -261.977)"/>
</svg>
