<svg id="Component_16_50" data-name="Component 16 – 50" xmlns="http://www.w3.org/2000/svg" width="45" height="47" viewBox="0 0 45 47">
  <g id="Ellipse_6" data-name="Ellipse 6" fill="none" stroke="#d9d9d9" stroke-width="1">
    <ellipse cx="22.5" cy="23.5" rx="22.5" ry="23.5" stroke="none"/>
    <ellipse cx="22.5" cy="23.5" rx="22" ry="23" fill="none"/>
  </g>
  <path id="instagram-svgrepo-com_1_" data-name="instagram-svgrepo-com(1)" d="M12.276,5A7.305,7.305,0,0,0,5,12.276V22.47a7.305,7.305,0,0,0,7.276,7.276H22.47a7.305,7.305,0,0,0,7.276-7.276V12.276A7.305,7.305,0,0,0,22.47,5Zm0,2.25H22.47A5.02,5.02,0,0,1,27.5,12.276V22.47A5.02,5.02,0,0,1,22.47,27.5H12.276A5.02,5.02,0,0,1,7.25,22.47V12.276A5.02,5.02,0,0,1,12.276,7.25ZM24.017,9.71a1.019,1.019,0,1,0,1.019,1.019A1.015,1.015,0,0,0,24.017,9.71Zm-6.644.914a6.749,6.749,0,1,0,6.749,6.749A6.768,6.768,0,0,0,17.373,10.624Zm0,2.25a4.5,4.5,0,1,1-4.5,4.5A4.48,4.48,0,0,1,17.373,12.874Z" transform="translate(4.957 5.416)"/>
</svg>
