<svg id="Component_15_50" data-name="Component 15 – 50" xmlns="http://www.w3.org/2000/svg" width="46" height="47" viewBox="0 0 46 47">
  <g id="Ellipse_7" data-name="Ellipse 7" fill="none" stroke="#d9d9d9" stroke-width="1">
    <ellipse cx="23" cy="23.5" rx="23" ry="23.5" stroke="none"/>
    <ellipse cx="23" cy="23.5" rx="22.5" ry="23" fill="none"/>
  </g>
  <g id="linkedin-svgrepo-com_2_" data-name="linkedin-svgrepo-com(2)" transform="translate(10.254 11.021)">
    <rect id="Rectangle_84" data-name="Rectangle 84" width="4.995" height="15.986" transform="translate(0.66 7.548)"/>
    <path id="Path_104" data-name="Path 104" d="M-267.947,283.9A2.8,2.8,0,0,0-271,286.673a2.773,2.773,0,0,0,2.983,2.773h.04a2.786,2.786,0,0,0,3.043-2.773A2.788,2.788,0,0,0-267.947,283.9Z" transform="translate(270.999 -283.9)"/>
    <path id="Path_105" data-name="Path 105" d="M-173.5,357.8c-2.863,0-4.655,1.562-4.985,2.663V357.95H-184.1c.07,1.331,0,15.986,0,15.986h5.616V365.3a3.778,3.778,0,0,1,.12-1.311,2.856,2.856,0,0,1,2.7-1.962c1.952,0,2.833,1.481,2.833,3.644v8.268h5.666v-8.889C-167.163,360.1-169.946,357.8-173.5,357.8Z" transform="translate(192.798 -350.402)"/>
  </g>
</svg>
