<svg id="Component_13_50" data-name="Component 13 – 50" xmlns="http://www.w3.org/2000/svg" width="46" height="47" viewBox="0 0 46 47">
  <g id="Ellipse_9" data-name="Ellipse 9" fill="none" stroke="#d9d9d9" stroke-width="1">
    <ellipse cx="23" cy="23.5" rx="23" ry="23.5" stroke="none"/>
    <ellipse cx="23" cy="23.5" rx="22.5" ry="23" fill="none"/>
  </g>
  <path id="twitter-svgrepo-com_3_" data-name="twitter-svgrepo-com(3)" d="M-249.454,298.667a8.872,8.872,0,0,1-2.538.7,4.4,4.4,0,0,0,1.941-2.445,9.011,9.011,0,0,1-2.807,1.076,4.427,4.427,0,0,0-3.227-1.395,4.425,4.425,0,0,0-4.42,4.42,4.039,4.039,0,0,0,.118,1.008,12.524,12.524,0,0,1-9.109-4.622,4.432,4.432,0,0,0-.6,2.227,4.437,4.437,0,0,0,1.966,3.681,4.476,4.476,0,0,1-2-.555v.05a4.419,4.419,0,0,0,3.546,4.336,4.454,4.454,0,0,1-1.168.16,4.506,4.506,0,0,1-.832-.076,4.417,4.417,0,0,0,4.126,3.067,8.873,8.873,0,0,1-5.487,1.891,8.949,8.949,0,0,1-1.059-.059,12.523,12.523,0,0,0,6.773,1.983,12.494,12.494,0,0,0,12.58-12.58c0-.193,0-.387-.008-.571a8.93,8.93,0,0,0,2.2-2.294" transform="translate(283.986 -281.283)"/>
</svg>
