<svg id="Component_17_50" data-name="Component 17 – 50" xmlns="http://www.w3.org/2000/svg" width="46" height="47" viewBox="0 0 46 47">
  <g id="Ellipse_5" data-name="Ellipse 5" fill="none" stroke="#d9d9d9" stroke-width="1">
    <ellipse cx="23" cy="23.5" rx="23" ry="23.5" stroke="none"/>
    <ellipse cx="23" cy="23.5" rx="22.5" ry="23" fill="none"/>
  </g>
  <path id="play-video-movie-film-svgrepo-com" d="M6.621,24.559a2.3,2.3,0,0,1-2.3-2.3V4.224A2.3,2.3,0,0,1,7.9,2.314l13.446,9.018a2.3,2.3,0,0,1,0,3.819L7.9,24.169h0A2.293,2.293,0,0,1,6.621,24.559ZM7.4,23.414ZM6.625,3.739a.509.509,0,0,0-.23.058.474.474,0,0,0-.256.427V22.259a.482.482,0,0,0,.751.4l13.446-9.018a.48.48,0,0,0,.214-.4.469.469,0,0,0-.214-.4L6.89,3.823A.472.472,0,0,0,6.625,3.739Z" transform="translate(13.33 9.832)"/>
</svg>
