<svg xmlns="http://www.w3.org/2000/svg" width="31.679" height="25.343" viewBox="0 0 31.679 25.343">
  <g id="chevrons-right-svgrepo-com" transform="translate(-3 -4)">
    <path id="Path_163518" data-name="Path 163518" d="M3.76,8.118A2.376,2.376,0,0,1,6.992,4.634l11.087,10.3a2.376,2.376,0,0,1,0,3.485L6.992,28.709A2.376,2.376,0,1,1,3.76,25.225l9.212-8.553Z" transform="translate(0 0)" fill="#0ab46e"/>
    <path id="Path_163519" data-name="Path 163519" d="M8.76,8.118a2.376,2.376,0,1,1,3.231-3.485l11.087,10.3a2.376,2.376,0,0,1,0,3.485l-11.087,10.3A2.376,2.376,0,1,1,8.76,25.225l9.212-8.553Z" transform="translate(10.839 0)" fill="#0ab46e"/>
  </g>
</svg>
