<svg id="Group_73216" data-name="Group 73216" xmlns="http://www.w3.org/2000/svg" width="48.161" height="35.996" viewBox="0 0 48.161 35.996">
  <path id="Path_163509" data-name="Path 163509" d="M46.254,8.623V5.59l-.439-.173a25.129,25.129,0,0,0-8.469-1.443A19.438,19.438,0,0,0,24.3,8.589,19.44,19.44,0,0,0,11.244,3.974,25.2,25.2,0,0,0,2.775,5.416l-.439.174V8.4C.9,8.668,0,9.151,0,9.937V38.894H21.325a4.784,4.784,0,0,0,6.046,0H48.161V9.937C48.16,9.3,47.434,8.88,46.254,8.623ZM24.065,36.61A40.089,40.089,0,0,0,10.09,33.563a17.073,17.073,0,0,0-6.372,1.1V6.547a24.794,24.794,0,0,1,7.526-1.192A18.115,18.115,0,0,1,23.253,9.539V26.321l.813-.894,0,11.183Zm20.807-1.941a17.863,17.863,0,0,0-6.69-1.182,36.666,36.666,0,0,0-13.659,3.107V25.426l.811.894V9.538A18.111,18.111,0,0,1,37.344,5.353a24.919,24.919,0,0,1,7.525,1.192V34.669Z" transform="translate(0 -3.974)" fill="#0ab46e"/>
  <path id="Path_163510" data-name="Path 163510" d="M4.215,8.283,4.5,9.366c7.2-1.909,13.681,1.626,13.745,1.662l.545-.98A21.239,21.239,0,0,0,4.215,8.283Z" transform="translate(2.237 -2.012)" fill="#0ab46e"/>
  <path id="Path_163511" data-name="Path 163511" d="M4.215,10.354,4.5,11.434c7.2-1.91,13.681,1.626,13.745,1.659l.545-.975A21.219,21.219,0,0,0,4.215,10.354Z" transform="translate(2.237 -0.914)" fill="#0ab46e"/>
  <path id="Path_163512" data-name="Path 163512" d="M4.215,12.3,4.5,13.378C11.7,11.471,18.184,15,18.248,15.04l.545-.98A21.278,21.278,0,0,0,4.215,12.3Z" transform="translate(2.237 0.118)" fill="#0ab46e"/>
  <path id="Path_163513" data-name="Path 163513" d="M4.215,14.431,4.5,15.511c7.2-1.91,13.681,1.626,13.745,1.662l.545-.978A21.219,21.219,0,0,0,4.215,14.431Z" transform="translate(2.237 1.249)" fill="#0ab46e"/>
  <path id="Path_163514" data-name="Path 163514" d="M4.215,16.4,4.5,17.486c7.2-1.91,13.681,1.626,13.745,1.662l.545-.98A21.268,21.268,0,0,0,4.215,16.4Z" transform="translate(2.237 2.297)" fill="#0ab46e"/>
  <path id="Path_163515" data-name="Path 163515" d="M4.215,18.436,4.5,19.515c7.2-1.909,13.681,1.627,13.745,1.662l.545-.977A21.21,21.21,0,0,0,4.215,18.436Z" transform="translate(2.237 3.374)" fill="#0ab46e"/>
  <path id="Path_163516" data-name="Path 163516" d="M4.215,20.467,4.5,21.549c7.2-1.91,13.681,1.626,13.745,1.661l.545-.977A21.235,21.235,0,0,0,4.215,20.467Z" transform="translate(2.237 4.453)" fill="#0ab46e"/>
  <path id="Path_163517" data-name="Path 163517" d="M24.8,11.377V10.152H24v1.225a5.349,5.349,0,0,0-1.454.208,4.02,4.02,0,0,0-1.327.643,3.464,3.464,0,0,0-.966,1.119,3.321,3.321,0,0,0-.373,1.615,2.784,2.784,0,0,0,.2,1.113,2.242,2.242,0,0,0,.568.781,3.425,3.425,0,0,0,.888.568c.349.159.733.308,1.151.452.233.081.461.152.681.207s.43.115.635.176v2.161a1.487,1.487,0,0,1-.689-.191,1.188,1.188,0,0,1-.377-.386,1.265,1.265,0,0,1-.167-.468,2.606,2.606,0,0,1-.038-.442H19.45a4.762,4.762,0,0,0,.291,1.456,3.443,3.443,0,0,0,.8,1.247,3.936,3.936,0,0,0,1.394.872A5.744,5.744,0,0,0,24,22.835V24.35h.8V22.835a5.888,5.888,0,0,0,2.062-.32,4.087,4.087,0,0,0,1.385-.83,3.032,3.032,0,0,0,.775-1.131,3.509,3.509,0,0,0,.236-1.255,4.856,4.856,0,0,0-.138-1.2,2.163,2.163,0,0,0-.606-1.016,4.476,4.476,0,0,0-1.35-.862,12.772,12.772,0,0,0-2.365-.712V13.8a3.538,3.538,0,0,1,.49.139,1,1,0,0,1,.329.2.794.794,0,0,1,.2.32,2.148,2.148,0,0,1,.1.493h2.925a3.615,3.615,0,0,0-.329-1.612,3.182,3.182,0,0,0-.889-1.111,3.7,3.7,0,0,0-1.3-.643A5.523,5.523,0,0,0,24.8,11.377ZM24,15.33q-1.088-.216-1.088-.825a.55.55,0,0,1,.337-.585A2.175,2.175,0,0,1,24,13.8Zm1.733,3.546a.674.674,0,0,1,.335.606.734.734,0,0,1-.366.669,2.085,2.085,0,0,1-.9.269V18.476A4.5,4.5,0,0,1,25.733,18.877Z" transform="translate(10.321 -0.696)" fill="#0ab46e"/>
</svg>
