<svg id="Group_55448" data-name="Group 55448" xmlns="http://www.w3.org/2000/svg" width="19.752" height="21.233" viewBox="0 0 19.752 21.233">
  <rect id="Rectangle_7836" data-name="Rectangle 7836" width="2.666" height="3.11" transform="translate(6.602 7.823)"/>
  <rect id="Rectangle_7838" data-name="Rectangle 7838" width="2.666" height="3.11" transform="translate(13.976 7.823)"/>
  <rect id="Rectangle_7839" data-name="Rectangle 7839" width="2.666" height="3.11" transform="translate(3.11 11.734)"/>
  <rect id="Rectangle_7843" data-name="Rectangle 7843" width="2.666" height="3.11" transform="translate(3.11 15.309)"/>
  <rect id="Rectangle_7845" data-name="Rectangle 7845" width="2.666" height="3.11" transform="translate(10.485 15.309)"/>
  <path id="Path_10496" data-name="Path 10496" d="M33.119,2.654V.664A.662.662,0,0,0,32.46,0H29.827a.662.662,0,0,0-.658.664V2.654H22.584V.664A.662.662,0,0,0,21.926,0H19.292a.662.662,0,0,0-.658.664V2.654H16V21.233H35.752V2.654ZM30.485,1.327H31.8V3.981H30.485Zm-10.535,0h1.317V3.981H19.95ZM34.435,19.906H17.317V6.635H34.435Z" transform="translate(-16 0)"/>
</svg>
