<svg id="help-desk-log-svgrepo-com" xmlns="http://www.w3.org/2000/svg" width="62" height="62" viewBox="0 0 62 62">
  <path id="Path_163472" data-name="Path 163472" d="M27.391,45.8V41.688H21.017a13.128,13.128,0,0,1-7.128-2.808,12.446,12.446,0,0,1-4.2-6.238l-.6-1.1H7.843A2.22,2.22,0,0,1,6.5,30.86,2.183,2.183,0,0,1,6,29.489a2.042,2.042,0,0,1,1.062-1.782l1.062-.582V23.218a1.948,1.948,0,0,1,.317-.805,2.025,2.025,0,0,1,.639-.6,2.093,2.093,0,0,1,.684-.435,2.149,2.149,0,0,1,.8-.148H31.818a2.112,2.112,0,0,1,.825.137,2.055,2.055,0,0,1,.7.444,1.98,1.98,0,0,1,.459.677,1.931,1.931,0,0,1,.141.8v10.28H25.089A3.124,3.124,0,0,0,24.1,32.23a3.091,3.091,0,0,0-1.523-.685,3.653,3.653,0,0,0-1.7.206,3.178,3.178,0,0,0-1.346.994,2.959,2.959,0,0,0-.6,1.508,2.828,2.828,0,0,0,.248,1.61,2.972,2.972,0,0,0,1.1,1.268,3.147,3.147,0,0,0,1.594.548H38.051a4.358,4.358,0,0,0,2.995-1.214,4.082,4.082,0,0,0,1.255-2.9V29.455a3.935,3.935,0,0,0-.331-1.582,4.045,4.045,0,0,0-.944-1.331,4.123,4.123,0,0,0-1.361-.894,4.229,4.229,0,0,0-1.614-.306V21.231A16.254,16.254,0,0,0,32.8,10.065a17.448,17.448,0,0,0-23.534,0A16.254,16.254,0,0,0,4.019,21.231V25.24A5.987,5.987,0,0,0,2,29.386a5.6,5.6,0,0,0,1.2,3.426,6.289,6.289,0,0,0,2.9,2.09,16.494,16.494,0,0,0,5.768,7.608,17.348,17.348,0,0,0,9.14,3.288Z" transform="translate(-2 5.35)" fill="#acbcd8"/>
  <path id="Path_163473" data-name="Path 163473" d="M37,2H12.2A6.2,6.2,0,0,0,6,8.2H33.9V23.7H49.4V57.8H6A6.2,6.2,0,0,0,12.2,64H49.4a6.2,6.2,0,0,0,6.2-6.2V20.6Z" transform="translate(6.4 -2)" fill="#acbcd8"/>
</svg>
