<svg xmlns="http://www.w3.org/2000/svg" width="20.668" height="22.629" viewBox="0 0 20.668 22.629">
  <g id="SVGRepo_iconCarrier" transform="translate(-2.25 -1.408)">
    <path id="Path_163659" data-name="Path 163659" d="M13.86,3.694,5.118,12.947A3.248,3.248,0,0,0,4.4,14.47L4.01,17.92A1.626,1.626,0,0,0,6,19.805l3.429-.586a3.058,3.058,0,0,0,1.48-.8l8.743-9.254c1.512-1.6,2.194-3.418-.16-5.644C17.151,1.319,15.373,2.1,13.86,3.694Z" transform="translate(0.065)" fill="none" stroke="#03e986" stroke-linecap="round" stroke-linejoin="round" stroke-width="1.5"/>
    <path id="Path_163660" data-name="Path 163660" d="M11.891,5.05a6.524,6.524,0,0,0,5.8,5.484" transform="translate(0.577 0.187)" fill="none" stroke="#03e986" stroke-linecap="round" stroke-linejoin="round" stroke-width="1.5" opacity="0.4"/>
    <path id="Path_163661" data-name="Path 163661" d="M3,22H22.168" transform="translate(0 1.287)" fill="none" stroke="#03e986" stroke-linecap="round" stroke-linejoin="round" stroke-width="1.5"/>
  </g>
</svg>
