<svg xmlns="http://www.w3.org/2000/svg" width="20" height="14" viewBox="0 0 20 14">
  <g id="view-eye-svgrepo-com" transform="translate(-2 -5)">
    <path id="Path_27832" data-name="Path 27832" d="M12,9a3,3,0,1,0,3,3A3,3,0,0,0,12,9Zm-1,3a1,1,0,1,1,1,1A1,1,0,0,1,11,12Z" fill="#fff" fill-rule="evenodd"/>
    <path id="Path_27833" data-name="Path 27833" d="M21.83,11.281C19.542,7.152,15.812,5,12,5S4.458,7.152,2.17,11.281a1.376,1.376,0,0,0-.01,1.307C4.412,16.8,8.163,19,12,19s7.588-2.2,9.84-6.412A1.376,1.376,0,0,0,21.83,11.281ZM12,17c-2.939,0-5.959-1.628-7.908-5.051A9.252,9.252,0,0,1,12,7a9.252,9.252,0,0,1,7.908,4.949C17.959,15.372,14.939,17,12,17Z" fill="#fff" fill-rule="evenodd"/>
  </g>
</svg>
