<svg xmlns="http://www.w3.org/2000/svg" width="44.34" height="42.001" viewBox="0 0 44.34 42.001">
  <g id="gift-svgrepo-com" transform="translate(-2 -1.994)">
    <path id="Path_163484" data-name="Path 163484" d="M4,13.176v8.233c0,4.435,0,6.653,1.378,8.031s3.6,1.378,8.031,1.378H32.227c4.435,0,6.653,0,8.031-1.378s1.378-3.6,1.378-8.031V13.176A1.176,1.176,0,0,0,40.46,12H5.176A1.176,1.176,0,0,0,4,13.176Z" transform="translate(1.352 12.177)" opacity="0.1"/>
    <path id="Path_163485" data-name="Path 163485" d="M3,12.881a11.809,11.809,0,0,1,.09-2.094,4.7,4.7,0,0,1,3.7-3.7A11.809,11.809,0,0,1,8.881,7H39.46a11.809,11.809,0,0,1,2.094.09,4.7,4.7,0,0,1,3.7,3.7,11.819,11.819,0,0,1,.09,2.094h0a11.819,11.819,0,0,1-.09,2.094,4.7,4.7,0,0,1-3.7,3.7,11.818,11.818,0,0,1-2.094.09H8.881a11.818,11.818,0,0,1-2.094-.09,4.7,4.7,0,0,1-3.7-3.7A11.81,11.81,0,0,1,3,12.881Z" transform="translate(0 5.415)" fill="none" stroke="#000" stroke-linejoin="round" stroke-width="2"/>
    <path id="Path_163486" data-name="Path 163486" d="M4,12v9.409c0,4.435,0,6.653,1.378,8.031s3.6,1.378,8.031,1.378H32.227c4.435,0,6.653,0,8.031-1.378s1.378-3.6,1.378-8.031V12" transform="translate(1.352 12.177)" fill="none" stroke="#000" stroke-linecap="round" stroke-linejoin="round" stroke-width="2"/>
    <path id="Path_163487" data-name="Path 163487" d="M12,7V37.579" transform="translate(12.17 5.415)" fill="none" stroke="#000" stroke-linecap="round" stroke-linejoin="round" stroke-width="2"/>
    <path id="Path_163488" data-name="Path 163488" d="M18.877,10.579l-4.656-5.82a4.71,4.71,0,1,0-3.687,7.657h7.46A1.131,1.131,0,0,0,18.877,10.579Z" transform="translate(3.823 0)" fill="none" stroke="#000" stroke-linecap="round" stroke-linejoin="round" stroke-width="2"/>
    <path id="Path_163489" data-name="Path 163489" d="M12.768,10.579l4.656-5.82a4.71,4.71,0,1,1,3.687,7.657h-7.46A1.131,1.131,0,0,1,12.768,10.579Z" transform="translate(12.871 0)" fill="none" stroke="#000" stroke-linecap="round" stroke-linejoin="round" stroke-width="2"/>
  </g>
</svg>
