<svg xmlns="http://www.w3.org/2000/svg" width="84.516" height="53" viewBox="0 0 84.516 53">
  <g id="Group_36" data-name="Group 36" transform="translate(-155 -982)">
    <path id="arrow-right-svgrepo-com_2_" data-name="arrow-right-svgrepo-com(2)" d="M30.713,16.09a.636.636,0,0,0,.014-.135v-.011h0a.727.727,0,0,0-.2-.475h0l-10-10a.751.751,0,0,0-1.062,1.061l8.721,8.72H2a.75.75,0,1,0,0,1.5H28.189l-8.72,8.719a.751.751,0,1,0,1.062,1.062l10-10c.025-.026.017-.064.038-.093.04-.052.1-.088.124-.151a.676.676,0,0,0,.02-.167c0-.011,0-.021,0-.032v0Z" transform="translate(206.729 1024.752) rotate(180)" fill="#fff"/>
    <g id="Group_35" data-name="Group 35">
      <g id="Ellipse_2" data-name="Ellipse 2" transform="translate(155 982)" fill="none" stroke="#fff" stroke-width="2">
        <ellipse cx="29.5" cy="26.5" rx="29.5" ry="26.5" stroke="none"/>
        <ellipse cx="29.5" cy="26.5" rx="28.5" ry="25.5" fill="none"/>
      </g>
      <line id="Line_7" data-name="Line 7" x2="62" y2="1" transform="translate(177.5 1008.5)" fill="none" stroke="#fff" stroke-width="2"/>
    </g>
  </g>
</svg>
