<svg xmlns="http://www.w3.org/2000/svg" width="48.479" height="48.479" viewBox="0 0 48.479 48.479">
  <g id="help-desk-log-svgrepo-com" transform="translate(-210 2)">
    <path id="Path_163472" data-name="Path 163472" d="M21.854,37.012V33.8H16.87A10.265,10.265,0,0,1,11.3,31.6a9.732,9.732,0,0,1-3.287-4.878l-.471-.858H6.569a1.736,1.736,0,0,1-1.052-.536,1.707,1.707,0,0,1-.388-1.072,1.6,1.6,0,0,1,.831-1.393l.831-.455V19.354a1.523,1.523,0,0,1,.248-.63,1.583,1.583,0,0,1,.5-.469,1.636,1.636,0,0,1,.535-.34A1.68,1.68,0,0,1,8.7,17.8H25.315a1.651,1.651,0,0,1,.645.107,1.607,1.607,0,0,1,.547.347,1.548,1.548,0,0,1,.359.529,1.51,1.51,0,0,1,.111.624v8.038H20.054a2.443,2.443,0,0,0-.775-1.045,2.417,2.417,0,0,0-1.191-.536,2.856,2.856,0,0,0-1.329.161,2.485,2.485,0,0,0-1.052.777,2.314,2.314,0,0,0-.471,1.179,2.211,2.211,0,0,0,.194,1.259,2.324,2.324,0,0,0,.858.991,2.461,2.461,0,0,0,1.246.429H30.189a3.408,3.408,0,0,0,2.342-.949,3.192,3.192,0,0,0,.981-2.266V24.231a3.077,3.077,0,0,0-.259-1.237,3.163,3.163,0,0,0-.738-1.041,3.224,3.224,0,0,0-1.064-.7,3.307,3.307,0,0,0-1.262-.239V17.8a12.709,12.709,0,0,0-4.1-8.731,13.643,13.643,0,0,0-18.4,0,12.709,12.709,0,0,0-4.1,8.731v3.135A4.681,4.681,0,0,0,2,24.177a4.381,4.381,0,0,0,.941,2.679,4.918,4.918,0,0,0,2.271,1.634,12.9,12.9,0,0,0,4.51,5.949,13.565,13.565,0,0,0,7.147,2.571Z" transform="translate(208 0.984)" fill="#acbcd8"/>
    <path id="Path_163473" data-name="Path 163473" d="M30.24,2H10.848A4.848,4.848,0,0,0,6,6.848H27.816v12.12h12.12V45.631H6a4.848,4.848,0,0,0,4.848,4.848H39.935a4.848,4.848,0,0,0,4.848-4.848V16.544Z" transform="translate(213.696 -4)" fill="#acbcd8"/>
  </g>
</svg>
