<svg xmlns="http://www.w3.org/2000/svg" width="21.956" height="17.416" viewBox="0 0 21.956 17.416">
  <g id="graph-level-svgrepo-com" transform="translate(0.5 -6)">
    <circle id="Ellipse_1302" data-name="Ellipse 1302" cx="0.5" cy="0.5" r="0.5" transform="translate(12.478 7.208)" fill="#fff" stroke="#fff" stroke-width="1"/>
    <circle id="Ellipse_1303" data-name="Ellipse 1303" cx="0.5" cy="0.5" r="0.5" transform="translate(12.478 9.208)" fill="#fff" stroke="#fff" stroke-width="1"/>
    <circle id="Ellipse_1304" data-name="Ellipse 1304" cx="0.5" cy="0.5" r="0.5" transform="translate(13.478 8.208)" fill="#fff" stroke="#fff" stroke-width="1"/>
    <circle id="Ellipse_1305" data-name="Ellipse 1305" cx="0.5" cy="0.5" r="0.5" transform="translate(13.478 10.208)" fill="#fff" stroke="#fff" stroke-width="1"/>
    <circle id="Ellipse_1306" data-name="Ellipse 1306" cx="0.5" cy="0.5" r="0.5" transform="translate(11.478 8.208)" fill="#fff" stroke="#fff" stroke-width="1"/>
    <circle id="Ellipse_1307" data-name="Ellipse 1307" cx="0.5" cy="0.5" r="0.5" transform="translate(11.478 10.208)" fill="#fff" stroke="#fff" stroke-width="1"/>
    <circle id="Ellipse_1308" data-name="Ellipse 1308" cx="0.5" cy="0.5" r="0.5" transform="translate(12.478 11.208)" fill="#fff" stroke="#fff" stroke-width="1"/>
    <circle id="Ellipse_1309" data-name="Ellipse 1309" cx="0.5" cy="0.5" r="0.5" transform="translate(12.478 13.208)" fill="#fff" stroke="#fff" stroke-width="1"/>
    <circle id="Ellipse_1310" data-name="Ellipse 1310" cx="0.5" cy="0.5" r="0.5" transform="translate(13.478 12.208)" fill="#fff" stroke="#fff" stroke-width="1"/>
    <circle id="Ellipse_1311" data-name="Ellipse 1311" cx="0.5" cy="0.5" r="0.5" transform="translate(13.478 14.208)" fill="#fff" stroke="#fff" stroke-width="1"/>
    <circle id="Ellipse_1312" data-name="Ellipse 1312" cx="0.5" cy="0.5" r="0.5" transform="translate(11.478 12.208)" fill="#fff" stroke="#fff" stroke-width="1"/>
    <circle id="Ellipse_1313" data-name="Ellipse 1313" cx="0.5" cy="0.5" r="0.5" transform="translate(11.478 14.208)" fill="#fff" stroke="#fff" stroke-width="1"/>
    <circle id="Ellipse_1314" data-name="Ellipse 1314" cx="0.5" cy="0.5" r="0.5" transform="translate(12.478 15.208)" fill="#fff" stroke="#fff" stroke-width="1"/>
    <circle id="Ellipse_1315" data-name="Ellipse 1315" cx="0.5" cy="0.5" r="0.5" transform="translate(12.478 17.208)" fill="#fff" stroke="#fff" stroke-width="1"/>
    <circle id="Ellipse_1316" data-name="Ellipse 1316" cx="0.5" cy="0.5" r="0.5" transform="translate(13.478 16.208)" fill="#fff" stroke="#fff" stroke-width="1"/>
    <ellipse id="Ellipse_1317" data-name="Ellipse 1317" cx="0.5" rx="0.5" transform="translate(13.478 19.208)" fill="#fff" stroke="#fff" stroke-width="1"/>
    <circle id="Ellipse_1318" data-name="Ellipse 1318" cx="0.5" cy="0.5" r="0.5" transform="translate(11.478 16.208)" fill="#fff" stroke="#fff" stroke-width="1"/>
    <ellipse id="Ellipse_1319" data-name="Ellipse 1319" cx="0.5" rx="0.5" transform="translate(11.478 19.208)" fill="#fff" stroke="#fff" stroke-width="1"/>
    <ellipse id="Ellipse_1320" data-name="Ellipse 1320" cx="0.5" rx="0.5" transform="translate(12.478 20.208)" fill="#fff" stroke="#fff" stroke-width="1"/>
    <ellipse id="Ellipse_1321" data-name="Ellipse 1321" cx="0.5" rx="0.5" transform="translate(13.478 21.208)" fill="#fff" stroke="#fff" stroke-width="1"/>
    <ellipse id="Ellipse_1322" data-name="Ellipse 1322" cx="0.5" rx="0.5" transform="translate(11.478 21.208)" fill="#fff" stroke="#fff" stroke-width="1"/>
    <path id="Path_27831" data-name="Path 27831" d="M20.607,22.217h-.349V9.294H16.066V22.217H15.019V6.5H10.827V22.217H9.779v-4.89H5.588v4.89H4.54V14.184H.349v8.033a.349.349,0,0,0,0,.7H20.607a.349.349,0,1,0,0-.7Zm-19.559,0V14.882H3.842v7.335Zm5.239,0V18.026H9.081v4.191Zm6.985,0a.349.349,0,1,0-.7,0H11.526V7.2H14.32V22.217Zm3.493,0V9.993h2.794V22.217Z" fill="#fff" stroke="#fff" stroke-width="1"/>
  </g>
</svg>
