<svg xmlns="http://www.w3.org/2000/svg" width="28" height="28" viewBox="0 0 28 28">
  <g id="Layer_2" data-name="Layer 2" transform="translate(0.099 0.099)">
    <g id="invisible_box" data-name="invisible box">
      <rect id="Rectangle_17949" data-name="Rectangle 17949" width="28" height="28" transform="translate(-0.099 -0.099)" fill="none"/>
    </g>
    <g id="Layer_7" data-name="Layer 7" transform="translate(2.896 1.158)">
      <g id="Group_73327" data-name="Group 73327">
        <path id="Path_163662" data-name="Path 163662" d="M24.694,11.268H22.377v-2.9A6.371,6.371,0,0,0,16.005,2H14.847A6.371,6.371,0,0,0,8.475,8.371v2.9H6.158A1.158,1.158,0,0,0,5,12.426v13.9a1.158,1.158,0,0,0,1.158,1.158H24.694a1.158,1.158,0,0,0,1.158-1.158v-13.9A1.158,1.158,0,0,0,24.694,11.268Zm-13.9-2.9a4.055,4.055,0,0,1,4.055-4.055h1.158A4.055,4.055,0,0,1,20.06,8.371v2.9H10.792Zm12.743,16.8H7.317V13.584H23.535Z" transform="translate(-5 -2)" fill="#0ab46e"/>
        <ellipse id="Ellipse_1328" data-name="Ellipse 1328" cx="2" cy="1.5" rx="2" ry="1.5" transform="translate(4.005 15.743)" fill="#0ab46e"/>
        <circle id="Ellipse_1329" data-name="Ellipse 1329" cx="1.5" cy="1.5" r="1.5" transform="translate(9.005 15.743)" fill="#0ab46e"/>
        <ellipse id="Ellipse_1330" data-name="Ellipse 1330" cx="2" cy="1.5" rx="2" ry="1.5" transform="translate(13.005 15.743)" fill="#0ab46e"/>
      </g>
    </g>
  </g>
</svg>
