<svg xmlns="http://www.w3.org/2000/svg" width="54.274" height="63.318" viewBox="0 0 54.274 63.318">
  <g id="pdf-file-svgrepo-com" transform="translate(-36.565)">
    <path id="Path_163476" data-name="Path 163476" d="M100.677,14.573V63.32H47.791V0H86.106l6.787,6.787Z" transform="translate(-9.838 -0.002)" fill="#fffefe"/>
    <rect id="Rectangle_17808" data-name="Rectangle 17808" width="25.364" height="11.349" transform="translate(36.565 4.241)" fill="#b43331"/>
    <g id="Group_73182" data-name="Group 73182" transform="translate(40.657 6.582)">
      <g id="Group_73180" data-name="Group 73180">
        <path id="Path_163477" data-name="Path 163477" d="M74.658,54.6a2.1,2.1,0,0,0-1.212-1.2,2.655,2.655,0,0,0-1.007-.177H69.652v7.2H71.06V57.707h1.38a2.654,2.654,0,0,0,1.007-.177,2.153,2.153,0,0,0,.746-.485,2.077,2.077,0,0,0,.466-.718,2.426,2.426,0,0,0,0-1.725Zm-1.52,1.575a1.077,1.077,0,0,1-.765.27H71.06V54.472h1.314a1.043,1.043,0,0,1,.765.28,1.076,1.076,0,0,1,0,1.426Z" transform="translate(-69.652 -53.223)" fill="#fffefe"/>
        <path id="Path_163478" data-name="Path 163478" d="M127.631,56.009c-.009-.252-.019-.475-.047-.681a2.66,2.66,0,0,0-.14-.569,2.03,2.03,0,0,0-.261-.485,2.372,2.372,0,0,0-.9-.8,2.928,2.928,0,0,0-1.268-.252H122.42v7.2h2.592a2.928,2.928,0,0,0,1.268-.252,2.372,2.372,0,0,0,.9-.8,2.029,2.029,0,0,0,.261-.485,2.669,2.669,0,0,0,.14-.569c.028-.205.037-.429.047-.681s.009-.513.009-.811S127.64,56.252,127.631,56.009Zm-1.408,1.538a4.026,4.026,0,0,1-.037.531,1.613,1.613,0,0,1-.084.364,1.033,1.033,0,0,1-.158.28,1.253,1.253,0,0,1-1.053.438h-1.072V54.471h1.072a1.258,1.258,0,0,1,1.053.447.979.979,0,0,1,.158.27,1.7,1.7,0,0,1,.084.373,3.873,3.873,0,0,1,.037.522c.009.205.009.457.009.736S126.233,57.343,126.223,57.548Z" transform="translate(-115.894 -53.222)" fill="#fffefe"/>
        <path id="Path_163479" data-name="Path 163479" d="M179.555,54.471V53.222H174.81v7.2h1.408V57.5h2.843V56.242h-2.843V54.471Z" transform="translate(-161.805 -53.222)" fill="#fffefe"/>
      </g>
      <g id="Group_73181" data-name="Group 73181" transform="translate(0 0)">
        <path id="Path_163480" data-name="Path 163480" d="M74.658,54.6a2.1,2.1,0,0,0-1.212-1.2,2.655,2.655,0,0,0-1.007-.177H69.652v7.2H71.06V57.707h1.38a2.654,2.654,0,0,0,1.007-.177,2.153,2.153,0,0,0,.746-.485,2.077,2.077,0,0,0,.466-.718,2.426,2.426,0,0,0,0-1.725Zm-1.52,1.575a1.077,1.077,0,0,1-.765.27H71.06V54.472h1.314a1.043,1.043,0,0,1,.765.28,1.076,1.076,0,0,1,0,1.426Z" transform="translate(-69.652 -53.223)" fill="#fffefe"/>
      </g>
    </g>
    <path id="Path_163481" data-name="Path 163481" d="M100.677,62.665v48.747H47.791V99.983L72.514,75.26,73.978,73.8l.811-.811,1.352-1.352,1.6-1.6L92.893,54.881Z" transform="translate(-9.838 -48.094)" fill="#040000" opacity="0.08"/>
    <path id="Path_163482" data-name="Path 163482" d="M372.172,14.573H357.6V0Z" transform="translate(-281.333)" fill="#bbbbba"/>
    <g id="Group_73183" data-name="Group 73183" transform="translate(43.881 18.337)">
      <path id="Path_163483" data-name="Path 163483" d="M135.133,175.78a6.092,6.092,0,0,0-1.249-1.52,9.013,9.013,0,0,0-1.5-1.091c-2.293-1.352-5.565-2-10.012-2h-.447c-.242-.224-.494-.447-.755-.681a19.991,19.991,0,0,1-4.074-5.006c2.051-4.521,3.03-8.549,2.909-11.979a6.422,6.422,0,0,0-.252-1.622,5.251,5.251,0,0,0-1.119-2.116l-.019-.019a4.265,4.265,0,0,0-3.16-1.464,3.962,3.962,0,0,0-3.067,1.454,5.779,5.779,0,0,0-1.221,3.71,31.827,31.827,0,0,0,.55,6.47c.037.159.065.317.1.475a24.353,24.353,0,0,0,1.715,5.146c-.876,1.781-1.762,3.319-2.377,4.363-.466.792-.979,1.622-1.51,2.452a36.559,36.559,0,0,0-6.2,1.6,15.931,15.931,0,0,0-5.7,3.319,6.545,6.545,0,0,0-1.8,2.722,4.1,4.1,0,0,0,.056,2.834,4.023,4.023,0,0,0,1.7,1.958,4.3,4.3,0,0,0,.587.289,5.119,5.119,0,0,0,1.93.373,6.981,6.981,0,0,0,4.568-1.9,47.8,47.8,0,0,0,6.749-8.278c1.277-.2,2.666-.364,4.232-.531,1.846-.186,3.477-.3,4.96-.354q.685.615,1.315,1.175a52.582,52.582,0,0,0,5.705,4.633c0,.009.009.009.019.009a13.912,13.912,0,0,0,1.846,1.044,4.879,4.879,0,0,0,2.079.485,4.19,4.19,0,0,0,2.433-.764,3.863,3.863,0,0,0,1.454-2.079A4.142,4.142,0,0,0,135.133,175.78Zm-20.612-18.673a28.491,28.491,0,0,1-.168-3.626c.019-1.2.457-2.014,1.1-2.014.485,0,1,.438,1.231,1.277a3.882,3.882,0,0,1,.121.867c.019.392.009.8-.009,1.221a18.424,18.424,0,0,1-.615,3.794,26.18,26.18,0,0,1-.839,2.713A22.821,22.821,0,0,1,114.521,157.107Zm-15.55,24.537c-.159-.392.019-1.147.988-2.079,1.482-1.417,3.8-2.536,7.038-3.384-.615.839-1.221,1.6-1.809,2.3a25.056,25.056,0,0,1-2.526,2.685,4.012,4.012,0,0,1-2.079,1.063,2.384,2.384,0,0,1-.364.028A1.287,1.287,0,0,1,98.971,181.644Zm14.9-9.91.065-.1-.1.019a.593.593,0,0,1,.074-.13c.392-.662.886-1.51,1.417-2.489l.047.1.121-.252c.392.559.82,1.109,1.268,1.641.215.252.438.494.662.736l-.149.009.13.121c-.382.028-.783.065-1.184.1-.252.028-.513.047-.774.075C114.9,171.622,114.372,171.678,113.868,171.734Zm15.69,5.817a34.386,34.386,0,0,1-3.878-3.039,12.829,12.829,0,0,1,5.09,1.408,4.808,4.808,0,0,1,1.2.932c.448.475.606.9.522,1.193a.775.775,0,0,1-.8.485,1.664,1.664,0,0,1-.727-.177,12.116,12.116,0,0,1-1.352-.764C129.6,177.589,129.577,177.57,129.558,177.551Z" transform="translate(-95.726 -148.279)" fill="#b43331"/>
    </g>
  </g>
</svg>
