<svg xmlns="http://www.w3.org/2000/svg" width="20" height="20" viewBox="0 0 20 20">
  <path id="time-square-svgrepo-com" d="M11.005,2h1.989c1.386,0,2.488,0,3.377.074a6.158,6.158,0,0,1,2.394.6,6,6,0,0,1,2.559,2.559,6.158,6.158,0,0,1,.6,2.394C22,8.517,22,9.62,22,11.005v1.989c0,1.386,0,2.488-.074,3.377a6.158,6.158,0,0,1-.6,2.394,6,6,0,0,1-2.559,2.559,6.158,6.158,0,0,1-2.394.6C15.483,22,14.38,22,12.995,22H11.005c-1.386,0-2.488,0-3.377-.074a6.158,6.158,0,0,1-2.394-.6,6,6,0,0,1-2.559-2.559,6.158,6.158,0,0,1-.6-2.394C2,15.483,2,14.38,2,12.995V11.005c0-1.386,0-2.488.074-3.377a6.159,6.159,0,0,1,.6-2.394A6,6,0,0,1,5.234,2.676a6.159,6.159,0,0,1,2.394-.6C8.517,2,9.619,2,11.005,2ZM7.794,4.067a4.221,4.221,0,0,0-1.638.383A4,4,0,0,0,4.45,6.156a4.221,4.221,0,0,0-.383,1.638C4,8.59,4,9.609,4,11.05v1.9c0,1.441,0,2.46.067,3.256a4.221,4.221,0,0,0,.383,1.638A4,4,0,0,0,6.156,19.55a4.224,4.224,0,0,0,1.638.383C8.59,20,9.609,20,11.05,20h1.9c1.441,0,2.46,0,3.256-.067a4.223,4.223,0,0,0,1.638-.383,4,4,0,0,0,1.706-1.706,4.223,4.223,0,0,0,.383-1.638C20,15.41,20,14.391,20,12.95v-1.9c0-1.441,0-2.46-.067-3.256a4.224,4.224,0,0,0-.383-1.638A4,4,0,0,0,17.844,4.45a4.221,4.221,0,0,0-1.638-.383C15.41,4,14.391,4,12.95,4h-1.9C9.609,4,8.59,4,7.794,4.067Zm4.034,2.69a1,1,0,0,1,1,1v4.967l3.527,1.341a1,1,0,0,1-.711,1.869l-4.172-1.586a1,1,0,0,1-.645-.935V7.757A1,1,0,0,1,11.828,6.757Z" transform="translate(-2 -2)" fill="#fff" fill-rule="evenodd"/>
</svg>
