<svg xmlns="http://www.w3.org/2000/svg" width="29.678" height="29.678" viewBox="0 0 29.678 29.678">
  <path id="chart-line-up-svgrepo-com" d="M6.357,24.175a.687.687,0,0,0,.289.062.7.7,0,0,0,.639-.412l0,0,4.207-9.394,3.881,1.328a.706.706,0,0,0,.74-.184h0l6.713-7.148v2.487a.7.7,0,0,0,1.407,0h0V6.644l0-.015,0-.022a.694.694,0,0,0-.211-.469h0l0-.008L24,6.124a.694.694,0,0,0-.464-.184H19.268a.7.7,0,0,0,0,1.407h2.637L15.4,14.275l-4.059-1.388a.691.691,0,0,0-.225-.037.708.708,0,0,0-.643.411l0,0L6,23.246a.7.7,0,0,0-.062.287.7.7,0,0,0,.412.64l0,0ZM28.224,27.52H2.657V1.954a.7.7,0,0,0-1.407,0h0v26.27a.7.7,0,0,0,.7.7h26.27a.7.7,0,0,0,0-1.407Z" transform="translate(-0.25 -0.25)" fill="#0ab46e" stroke="#0ab46e" stroke-width="2"/>
</svg>
