<svg id="upload-to-cloud" xmlns="http://www.w3.org/2000/svg" width="47.998" height="33.104" viewBox="0 0 47.998 33.104">
  <path id="Path_2616" data-name="Path 2616" d="M37.041,44.278c-.45-6.078-6.135-10.9-13.06-10.9s-12.613,4.825-13.06,10.9C4.728,44.978,0,49.684,0,55.332c0,6.148,5.607,11.15,12.5,11.15H31.505a.879.879,0,1,0,0-1.747H12.5c-5.812,0-10.54-4.219-10.54-9.4,0-4.99,4.378-9.108,9.968-9.377a.924.924,0,0,0,.926-.872c0-.017,0-.034,0-.052.015-5.464,5-9.906,11.13-9.906s11.117,4.443,11.13,9.908c0,.017,0,.035,0,.048a.924.924,0,0,0,.929.872c5.608.253,10,4.373,10,9.378a9.023,9.023,0,0,1-3.894,7.3A.811.811,0,0,0,42,63.859a1.061,1.061,0,0,0,1.377.126A10.7,10.7,0,0,0,48,55.332C48,49.667,43.254,44.958,37.041,44.278Z" transform="translate(0 -33.378)" fill="#003684"/>
  <path id="Path_2617" data-name="Path 2617" d="M140.966,135.951V147.09a.985.985,0,0,0,1.958,0V135.951a.985.985,0,0,0-1.958,0Z" transform="translate(-117.964 -120.273)" fill="#003684"/>
  <path id="Path_2618" data-name="Path 2618" d="M118.828,112.63a1.04,1.04,0,0,0,.692-.256.808.808,0,0,0,0-1.235l-5.6-5a1.065,1.065,0,0,0-1.385,0l-5.6,5a.808.808,0,0,0,0,1.235,1.064,1.064,0,0,0,1.385,0L113.228,108l4.907,4.378A1.04,1.04,0,0,0,118.828,112.63Z" transform="translate(-89.247 -95.332)" fill="#003684"/>
</svg>
