<svg id="Component_12_25" data-name="Component 12 – 25" xmlns="http://www.w3.org/2000/svg" width="263" height="99" viewBox="0 0 263 99">
  <g id="Ellipse_4" data-name="Ellipse 4" transform="translate(158)" fill="none" stroke="#fff" stroke-width="5">
    <ellipse cx="52.5" cy="49.5" rx="52.5" ry="49.5" stroke="none"/>
    <ellipse cx="52.5" cy="49.5" rx="50" ry="47" fill="none"/>
  </g>
  <path id="play-video-movie-film-svgrepo-com" d="M7.735,35.525a3.413,3.413,0,0,1-3.413-3.414V5.338A3.413,3.413,0,0,1,9.636,2.5L29.6,15.89a3.414,3.414,0,0,1,0,5.669L9.636,34.946h0A3.4,3.4,0,0,1,7.735,35.525Zm1.15-1.7ZM7.74,4.618A.755.755,0,0,0,7.4,4.7a.7.7,0,0,0-.38.633V32.112a.716.716,0,0,0,1.115.6L28.095,19.32a.712.712,0,0,0,.317-.6.7.7,0,0,0-.317-.593L8.134,4.742a.7.7,0,0,0-.394-.124Z" transform="translate(196.701 28.852)" fill="#0ab46e" stroke="#0ab46e" stroke-width="2"/>
  <text id="شاهدها_الأن" data-name="شاهدها الأن" transform="translate(114 53)" fill="#fff" font-size="20" font-family="FFShamelFamily-SansOneBook, FF Shamel Family Sans One"><tspan x="-113" y="0">شاهدها الأن</tspan></text>
</svg>
